{"title":"Panic.5.Bravo.2014.DVDRip.XviD.AC3-RARBG","uid":11791553,"size":1377859457,"categoryP":"video","categoryS":"movies","magnet":"?xt=urn:btih:b51b61e7979cc86593846198b75ea914f6ce9af5&amp;dn=Panic.5.Bravo.2014.DVDRip.XviD.AC3-RARBG&amp;tr=udp%3A%2F%2Ftracker.openbittorrent.com%3A80&amp;tr=udp%3A%2F%2Fopen.demonii.com%3A1337&amp;tr=udp%3A%2F%2Ftracker.coppersurfer.tk%3A6969&amp;tr=udp%3A%2F%2Fexodus.desync.com%3A6969","seeders":1,"leechers":0,"uploader":"makintos13","files":4,"time":1427965140,"description":"screen:\n &lt;a href=&quot;\nhttp://imgmak.com/T8&quot; rel=&quot;nofollow&quot; target=&quot;_NEW&quot;&gt;\nhttp://imgmak.com/T8&lt;/a&gt; &lt;a href=&quot;\nhttp://imgmak.com/TL&quot; rel=&quot;nofollow&quot; target=&quot;_NEW&quot;&gt;\nhttp://imgmak.com/TL&lt;/a&gt; &lt;a href=&quot;\nhttp://imgmak.com/TX&quot; rel=&quot;nofollow&quot; target=&quot;_NEW&quot;&gt;\nhttp://imgmak.com/TX&lt;/a&gt; &lt;a href=&quot;\nhttp://imgmak.com/aC&quot; rel=&quot;nofollow&quot; target=&quot;_NEW&quot;&gt;\nhttp://imgmak.com/aC&lt;/a&gt;\n\nVideo\nID : 0\nFormat : MPEG-4 Visual\nFormat profile : Simple@L5\nFormat settings, BVOP : No\nFormat settings, QPel : No\nFormat settings, GMC : No warppoints\nFormat settings, Matrix : Default (H.263)\nCodec ID : XVID\nCodec ID/Hint : XviD\nDuration : 1h 24mn\nBit rate : 1 722 Kbps\nWidth : 704 pixels\nHeight : 384 pixels\nDisplay aspect ratio : 1.85:1\nFrame rate : 23.976 fps\nColor space : YUV\nChroma subsampling : 4:2:0\nBit depth : 8 bits\nScan type : Progressive\nCompression mode : Lossy\nBits/(Pixel*Frame) : 0.266\nStream size : 1.01 GiB (89%)\nWriting library : Lavc56.20.100\n\nAudio\nID : 1\nFormat : MPEG Audio\nFormat version : Version 1\nFormat profile : Layer 3\nMode : Joint stereo\nMode extension : MS Stereo\nCodec ID : 55\nCodec ID/Hint : MP3\nDuration : 1h 24mn\nBit rate mode : Constant\nBit rate : 192 Kbps\nChannel(s) : 2 channels\nSampling rate : 48.0 KHz\nCompression mode : Lossy\nStream size : 116 MiB (10%)\nAlignment : Aligned on interleaves\nInterleave, duration : 24 ms (0.58 video frame)\nInterleave, preload duration : 504 ms","torrent":{"xt":"urn:btih:b51b61e7979cc86593846198b75ea914f6ce9af5","amp;dn":"Panic.5.Bravo.2014.DVDRip.XviD.AC3-RARBG","amp;tr":["udp%3A%2F%2Ftracker.openbittorrent.com%3A80","udp%3A%2F%2Fopen.demonii.com%3A1337","udp%3A%2F%2Ftracker.coppersurfer.tk%3A6969","udp%3A%2F%2Fexodus.desync.com%3A6969"],"infoHash":"b51b61e7979cc86593846198b75ea914f6ce9af5","infoHashBuffer":{"type":"Buffer","data":[181,27,97,231,151,156,200,101,147,132,97,152,183,94,169,20,246,206,154,245]},"announce":[],"urlList":[]}}